<svg xmlns="http://www.w3.org/2000/svg" viewBox="0 0 48 60" x="0px" y="0px" fill="#FFFFFF"><title>investation vol.1</title><g data-name="Layer 5"><path d="M42.47852,10.67725H40.45508a3.42785,3.42785,0,0,0-3.0343,1.85644H24.94141a1.00169,1.00169,0,0,0-.73047.3169L22.682,14.48505l-1.04138-1.04169a.99929.99929,0,0,0-.707-.293H10.57782a3.43117,3.43117,0,0,0-3.2829-2.47314H5.27148a3.441,3.441,0,0,0-3.43652,3.437V27.08252a3.441,3.441,0,0,0,3.43652,3.437H7.29492a3.42877,3.42877,0,0,0,2.91144-1.63037L21.5625,39.47363a.99688.99688,0,0,0,.5293.25684,3.98087,3.98087,0,0,0,.60547.04736,3.71526,3.71526,0,0,0,2.957-1.51513,4.344,4.344,0,0,0,3.48925-2.17579,7.04034,7.04034,0,0,0,4.07129-2.38232,4.87931,4.87931,0,0,0,4.042-4.02637,1.00013,1.00013,0,0,0-.27539-.894l-.22657-.22656h.60858a3.43256,3.43256,0,0,0,3.09162,1.96191h2.02344a3.44121,3.44121,0,0,0,3.4375-3.437V14.11426A3.44121,3.44121,0,0,0,42.47852,10.67725ZM8.73242,27.08252a1.4386,1.4386,0,0,1-1.4375,1.437H5.27148a1.43839,1.43839,0,0,1-1.43652-1.437V14.11426a1.43839,1.43839,0,0,1,1.43652-1.437H7.29492a1.4386,1.4386,0,0,1,1.4375,1.437ZM32.72754,31.729a1.00793,1.00793,0,0,0-.79883.398c-.01465.02-1.5332,1.99366-3.33008,1.99366-.02539,0-.05175-.00049-.07812-.00147a.9948.9948,0,0,0-.9834.69141A2.32261,2.32261,0,0,1,25.124,36.27783a1.01118,1.01118,0,0,0-.92578.55762,1.74456,1.74456,0,0,1-1.50879.94141H22.6748L10.73242,26.64594V15.15039h9.78711l.79682.79712-4.50971,4.79565a3.979,3.979,0,0,0,5.4541,5.77637L27.502,22.13385l7.65229,7.65179A2.6198,2.6198,0,0,1,32.72754,31.729Zm-4.458-11.65576a.95835.95835,0,0,0-.19159-.12726.98992.98992,0,0,0-.08685-.05767.96792.96792,0,0,0-.26032-.07526.99344.99344,0,0,0-.1109-.02161.97958.97958,0,0,0-.24341.025.96755.96755,0,0,0-.14093.02746.98539.98539,0,0,0-.18664.10083.9524.9524,0,0,0-.13385.07233l-5.93945,4.96973a1.97912,1.97912,0,0,1-2.71094-2.875l5.17383-5.50147c.005-.00531.00622-.01245.011-.01782L25.375,14.53369H37.01758V26.55762H35.11621a.97564.97564,0,0,0-.30084.06073ZM43.916,27.08252a1.43861,1.43861,0,0,1-1.4375,1.437H40.45508a1.4386,1.4386,0,0,1-1.4375-1.437V14.11426a1.41349,1.41349,0,0,1,.01782-.17633,1.00422,1.00422,0,0,0,.0639-.28168,1.4344,1.4344,0,0,1,1.35578-.979h2.02344a1.43861,1.43861,0,0,1,1.4375,1.437Z"/><path d="M26.92773,25.67822a.9988.9988,0,0,0-.11425,1.40918l3.55566,4.18311a.99971.99971,0,0,0,1.52344-1.29492l-3.55567-4.18311A.99919.99919,0,0,0,26.92773,25.67822Z"/><path d="M24.51172,27.58936a1,1,0,0,0-1.52344,1.29589l3.55664,4.1836a1,1,0,0,0,1.52344-1.2959Z"/><path d="M20.95605,29.34619a.99971.99971,0,1,0-1.52343,1.29492l3.55566,4.1836a.99971.99971,0,1,0,1.52344-1.29492Z"/></g></svg>