<svg xmlns="http://www.w3.org/2000/svg" xmlns:xlink="http://www.w3.org/1999/xlink" 
fill="#FFFFFF" version="1.1" x="0px" y="0px" viewBox="0 0 100 125" style="enable-background:new 0 0 100 100;" xml:space="preserve"><g><path d="M30.761,95c7.488,0,13.986-4.27,17.221-10.496c0.722,0.03,1.437,0.051,2.131,0.051c0.346,0,0.683,0,1.054-0.009   c0.364-0.009,0.727-0.018,1.082-0.042c0.154-0.001,0.306-0.008,0.491-0.017c0.035,0,0.07-0.001,0.105-0.004l1.06-0.076   c0.276-0.017,0.537-0.041,0.869-0.071c9.443-0.888,15.667-4.196,16-8.458c0.018-0.103,0.374-2.035,0.374-4.077   c0-1.62-0.222-3.19-0.332-3.838c0.271-1.697,0.332-3.01,0.332-3.815c0-0.795-0.06-2.088-0.33-3.806   c0.269-1.694,0.33-3.005,0.33-3.808c0-1.647-0.227-3.203-0.324-3.795c0.104-0.635,0.322-2.16,0.322-3.765   c0-1.643-0.229-3.198-0.329-3.805c0.1-0.606,0.329-2.162,0.329-3.805c0-1.747-0.259-3.403-0.347-3.914   c-0.086-5.823-10.697-8.964-20.686-8.964c-10.019,0-20.664,3.159-20.689,9.014c-0.095,0.565-0.336,2.164-0.336,3.854   c0,1.644,0.228,3.199,0.328,3.805c-0.1,0.606-0.328,2.161-0.328,3.805c0,1.63,0.225,3.174,0.326,3.791   c-0.097,0.579-0.304,1.999-0.326,3.52c-9.917,0.853-17.73,9.185-17.73,19.32C11.356,86.295,20.062,95,30.761,95z M63.063,58.324   c-0.234-0.794-1.069-1.247-1.862-1.015c-3.204,0.945-7.038,1.444-11.087,1.444c-6.493,0-12.519-1.33-15.727-3.469   c-0.003-0.002-0.007-0.005-0.011-0.007c-0.856-0.576-1.865-1.471-1.942-2.507c0-0.008-0.002-0.016-0.002-0.023   c0-0.001,0-0.002,0-0.003V52.72c0-0.051-0.01-0.099-0.015-0.148c-0.003-0.026-0.002-0.052-0.007-0.078c0,0-0.003-0.015-0.003-0.018   c-0.005-0.029-0.008-0.057-0.015-0.086c-0.056-0.328-0.23-1.427-0.287-2.669c0.174,0.134,0.337,0.267,0.533,0.4   c0.258,0.174,0.55,0.257,0.84,0.257c0.48,0,0.953-0.231,1.243-0.66c0.465-0.686,0.284-1.619-0.401-2.083   c-0.689-0.465-1.835-1.396-1.886-2.438c0-0.013-0.001-0.026-0.001-0.039c0-0.055-0.008-0.107-0.013-0.161   c-0.004-0.038-0.002-0.076-0.01-0.115c-0.003-0.015-0.233-1.278-0.303-2.741c3.797,2.889,11.05,4.412,18.004,4.412   c6.959,0,14.218-1.525,18.013-4.419c-0.069,1.469-0.302,2.742-0.305,2.756c-0.004,0.019-0.002,0.037-0.005,0.056   c-0.004,0.035-0.007,0.064-0.01,0.098c-0.003,0.04-0.009,0.078-0.009,0.119c-0.018,0.793-0.706,1.682-1.948,2.509   c-3.197,2.147-9.227,3.481-15.735,3.481c-4.522,0-8.859-0.641-12.21-1.805c-0.784-0.274-1.639,0.142-1.909,0.925   c-0.271,0.783,0.143,1.637,0.925,1.909c3.659,1.271,8.346,1.971,13.194,1.971c7.179,0,13.687-1.492,17.402-3.987   c0.224-0.149,0.415-0.3,0.611-0.451c-0.056,1.232-0.227,2.323-0.286,2.665c-0.009,0.038-0.014,0.077-0.02,0.116   c0,0,0,0.003,0,0.003c-0.001,0.004,0,0.008-0.001,0.012c-0.01,0.07-0.021,0.14-0.021,0.213c0,0.006,0.002,0.012,0.002,0.018   c0,0.005-0.002,0.01-0.002,0.016c-0.011,0.787-0.706,1.682-1.955,2.519c-0.234,0.157-0.486,0.31-0.753,0.458   c-0.723,0.404-0.982,1.318-0.578,2.041c0.274,0.492,0.785,0.77,1.311,0.77c0.248,0,0.499-0.062,0.73-0.19   c0.324-0.181,0.629-0.369,0.918-0.561c0.036-0.022,0.07-0.046,0.103-0.071c0.199-0.135,0.374-0.272,0.551-0.408   c-0.032,0.685-0.11,1.577-0.292,2.704c0,0.001,0,0.002,0,0.002c-0.022,0.102-0.035,0.208-0.035,0.316   c0,0.005,0.001,0.01,0.002,0.015c-0.017,0.778-0.677,1.65-1.867,2.464c-0.032,0.018-0.063,0.038-0.095,0.058   c-3.188,2.142-9.213,3.472-15.726,3.472c-0.815,0-1.588-0.026-2.333-0.064c-1.016-1.849-2.335-3.501-3.873-4.922   c1.973,0.254,4.059,0.391,6.207,0.391c4.332,0,8.459-0.542,11.935-1.566C62.843,59.953,63.297,59.119,63.063,58.324z    M54.431,81.354c-0.235,0.022-0.465,0.043-0.728,0.06l-1.032,0.073c-0.025,0-0.097,0.003-0.122,0.004   c-0.154,0.008-0.3,0.007-0.462,0.017c-0.325,0.023-0.658,0.03-1.022,0.039c-0.309,0.008-0.609,0.008-0.917,0.008   c-0.294-0.001-0.611-0.009-0.921-0.015c0.471-1.46,0.76-2.997,0.871-4.583c0.005,0,0.01,0,0.015,0c0.779,0,1.547-0.018,2.303-0.052   c0.828-0.038,1.468-0.74,1.43-1.567c-0.037-0.828-0.748-1.471-1.566-1.43c-0.72,0.033-1.459,0.044-2.196,0.043   c-0.136-1.604-0.47-3.148-0.974-4.618c0.333,0.006,0.66,0.017,1.003,0.017c7.122,0,13.577-1.463,17.304-3.918   c0.029-0.016,0.056-0.034,0.083-0.052c0.017-0.011,0.034-0.024,0.051-0.036c0.21-0.142,0.391-0.285,0.576-0.427   c-0.032,0.685-0.109,1.58-0.293,2.711c-0.022,0.106-0.035,0.215-0.035,0.318c0,0.006,0.002,0.012,0.002,0.018   c-0.032,1.073-1.234,2.032-1.949,2.509c-0.024,0.016-0.049,0.033-0.071,0.051c-0.002,0.001-0.004,0.002-0.007,0.004   c-1.951,1.285-5.028,2.313-8.665,2.894c-0.817,0.13-1.375,0.9-1.244,1.718c0.118,0.738,0.756,1.263,1.479,1.263   c0.079,0,0.158-0.006,0.239-0.019c4.105-0.656,7.508-1.815,9.823-3.339c0.038-0.024,0.086-0.056,0.133-0.092   c0.218-0.146,0.402-0.294,0.593-0.441c-0.065,1.496-0.305,2.805-0.307,2.82c-0.012,0.065-0.013,0.13-0.016,0.194   c-0.001,0.014-0.005,0.026-0.005,0.04C67.737,77.8,62.741,80.573,54.431,81.354z M50.112,31.486   c10.927,0,17.646,3.493,17.687,6.011c-0.001,0.02-0.002,0.04-0.002,0.061c-0.064,2.517-6.777,5.997-17.684,5.997   c-10.875,0-17.577-3.459-17.681-5.974c0.001-0.037,0.001-0.074-0.001-0.111C32.519,34.954,39.225,31.486,50.112,31.486z    M30.761,59.19c9.046,0,16.405,7.359,16.405,16.405S39.807,92,30.761,92c-9.045,0-16.404-7.359-16.404-16.405   S21.716,59.19,30.761,59.19z"/><path d="M30.583,77.083h0.178c0.711,0,1.39,0.346,1.815,0.924c0.412,0.564,0.528,1.289,0.319,1.983   c-0.243,0.739-0.869,1.32-1.604,1.485c-0.145,0.039-0.305,0.056-0.52,0.056c-0.968,0-1.826-0.616-2.136-1.53   c-0.19-0.583-0.751-0.976-1.394-0.976c-0.478,0-0.93,0.231-1.211,0.62c-0.287,0.4-0.582,0.861-0.444,1.277   c0.472,1.466,1.956,2.756,3.136,3.334l0.064,0.032v1.669c0,0.785,1.104,1.482,1.974,1.482c0.869,0,1.973-0.698,1.973-1.482v-1.671   l0.068-0.031c1.038-0.467,2.419-1.585,3-2.936c0.633-1.5,0.429-3.432-0.547-5.17c-0.806-1.402-2.549-2.344-4.338-2.344h-0.156   c-0.87,0-1.499-0.288-1.871-0.856c-0.417-0.636-0.479-1.34-0.177-2.039c0.268-0.632,0.852-1.098,1.564-1.247   c0.157-0.034,0.313-0.034,0.462-0.034c0.974,0,1.836,0.62,2.146,1.541c0.191,0.587,0.76,0.997,1.383,0.997   c0.483,0,0.939-0.23,1.224-0.623c0.237-0.34,0.596-0.854,0.453-1.283c-0.534-1.591-2.174-2.848-3.146-3.305l-0.066-0.031v-1.702   c0-0.779-1.104-1.472-1.973-1.472c-0.87,0-1.974,0.693-1.974,1.472v1.704l-0.068,0.03c-1.057,0.465-2.451,1.601-3.019,2.997   c-0.636,1.575-0.38,3.396,0.721,5.126C27.214,76.333,28.77,77.083,30.583,77.083z"/><path d="M13.086,45.029h10.371c0.828,0,1.5-0.671,1.5-1.5s-0.672-1.5-1.5-1.5H13.086c-0.828,0-1.5,0.671-1.5,1.5   S12.258,45.029,13.086,45.029z"/><path d="M75.272,43.529c0,0.829,0.672,1.5,1.5,1.5h10.371c0.828,0,1.5-0.671,1.5-1.5s-0.672-1.5-1.5-1.5H76.772   C75.944,42.029,75.272,42.7,75.272,43.529z"/><path d="M22.871,16.285c-0.586,0.585-0.586,1.535,0,2.121l7.333,7.333c0.293,0.293,0.677,0.439,1.061,0.439   s0.768-0.146,1.061-0.439c0.586-0.585,0.586-1.535,0-2.121l-7.333-7.333C24.406,15.699,23.457,15.699,22.871,16.285z"/><path d="M48.615,6.5v10.371c0,0.829,0.672,1.5,1.5,1.5s1.5-0.671,1.5-1.5V6.5c0-0.829-0.672-1.5-1.5-1.5S48.615,5.671,48.615,6.5z"/><path d="M77.358,16.285c-0.586-0.586-1.535-0.586-2.121,0l-7.333,7.333c-0.586,0.586-0.586,1.536,0,2.121   c0.293,0.293,0.677,0.439,1.061,0.439s0.768-0.146,1.061-0.439l7.333-7.333C77.944,17.82,77.944,16.871,77.358,16.285z"/></g></svg>