<svg xmlns="http://www.w3.org/2000/svg" xmlns:xlink="http://www.w3.org/1999/xlink"
fill="#FFFFFF" version="1.1" x="0px" y="0px" viewBox="0 0 24 30" enable-background="new 0 0 24 24" xml:space="preserve"><g><path d="M3.763,23.937c0.019,0.002,0.037,0.004,0.056,0.004h5.807c0.021,0,0.041-0.002,0.062-0.005   c0.917-0.07,1.639-0.522,2.044-1.24c0.726,0.806,1.518,1.244,2.29,1.244c0.582,0,0.897-0.094,1.176-0.177   c0.244-0.072,0.454-0.135,0.866-0.135s0.623,0.063,0.867,0.135c0.278,0.083,0.595,0.177,1.176,0.177   c1.002,0,2.038-0.73,2.918-2.058c1.292-1.947,2.17-5.192,1.251-7.368c-0.688-1.632-2.338-2.485-3.611-2.485   c-0.77,0-1.223,0.175-1.622,0.33c-0.21,0.081-0.391,0.151-0.602,0.19c-0.117-1.081-0.675-2.04-1.514-2.568   c-0.185-0.119-0.434-0.063-0.552,0.125c-0.117,0.187-0.062,0.434,0.126,0.552c0.608,0.384,1.021,1.081,1.133,1.881   c-0.188-0.041-0.356-0.105-0.548-0.18c-0.4-0.155-0.854-0.33-1.623-0.33c-0.429,0-0.9,0.105-1.363,0.296v-1.347   c0-0.008-0.004-0.015-0.005-0.023l0.001-1.113c0.001-0.748-0.175-1.43-0.536-2.086c-0.187-0.337-0.367-0.677-0.549-1.017   c-0.29-0.542-0.579-1.085-0.887-1.618c-0.263-0.454-0.371-0.887-0.36-1.36c0.707-0.286,1.182-1.012,1.182-1.808   c0-1.088-0.596-1.775-1.595-1.872C9.308,0.067,9.263,0.059,9.219,0.059L4.133,0.068C3.095,0.178,2.5,0.865,2.5,1.953   c0,0.796,0.475,1.522,1.161,1.808c0.031,0.472-0.077,0.905-0.34,1.36C3.013,5.654,2.724,6.197,2.434,6.74   c-0.182,0.34-0.362,0.68-0.548,1.017C1.524,8.411,1.348,9.094,1.349,9.843c0.001,0.372,0,0.744,0,1.116   c0,0.007-0.004,0.012-0.004,0.019v6.74c0,0.005,0.003,0.01,0.003,0.015l-0.003,3.398C1.345,23.552,3.174,23.89,3.763,23.937z    M11.293,12.767c-0.597,0.414-1.124,0.994-1.443,1.748c-0.347,0.824-0.436,1.802-0.344,2.804H2.149l0-0.468   c0.002-1.824,0.002-3.648,0.001-5.472h9.144L11.293,12.767z M9.626,23.138c-0.006,0.001-0.013,0.002-0.021,0.002H3.838   c-0.008-0.001-0.015-0.001-0.021-0.002c-0.625-0.048-1.672-0.372-1.672-2.006l0.002-3.014h7.475   c0.253,1.385,0.806,2.752,1.48,3.767c0.022,0.034,0.046,0.062,0.068,0.095C10.873,22.895,10.087,23.103,9.626,23.138z    M14.796,13.106c0.353,0.136,0.717,0.277,1.267,0.277s0.915-0.141,1.268-0.277c0.366-0.142,0.713-0.276,1.333-0.276   c1.01,0,2.322,0.686,2.875,1.997c0.78,1.85,0.013,4.816-1.181,6.615c-0.717,1.08-1.537,1.699-2.252,1.699   c-0.465,0-0.689-0.066-0.948-0.143c-0.266-0.079-0.566-0.169-1.095-0.169s-0.829,0.09-1.094,0.169   c-0.26,0.076-0.483,0.143-0.948,0.143c-0.715,0-1.535-0.618-2.251-1.697c-1.194-1.799-1.963-4.766-1.184-6.617   c0.276-0.654,0.742-1.152,1.264-1.488c0.007-0.003,0.012-0.008,0.019-0.011c0.519-0.329,1.093-0.498,1.593-0.498   C14.083,12.829,14.429,12.964,14.796,13.106z M4.217,0.864c0.008-0.001,0.021-0.002,0.034-0.005h4.941   c0.014,0.002,0.026,0.004,0.034,0.005c0.394,0.042,0.917,0.2,0.917,1.089c0,0.446-0.248,0.845-0.616,1.027H3.917   C3.548,2.798,3.3,2.4,3.3,1.953C3.3,1.064,3.824,0.906,4.217,0.864z M2.586,8.142c0.188-0.34,0.37-0.683,0.554-1.026   c0.285-0.535,0.57-1.07,0.874-1.595c0.327-0.568,0.469-1.139,0.445-1.741h4.527C8.961,4.384,9.103,4.955,9.43,5.522   c0.304,0.525,0.589,1.06,0.874,1.595c0.184,0.343,0.366,0.686,0.554,1.026c0.295,0.535,0.438,1.091,0.437,1.699l0,0.737H2.15   c0-0.246,0.001-0.491,0-0.737C2.149,9.232,2.292,8.676,2.586,8.142z"/><path d="M6.722,16.405c0.858,0,1.557-0.698,1.557-1.556c0-0.718-0.948-2.018-1.238-2.398c-0.152-0.199-0.484-0.199-0.637,0   c-0.29,0.381-1.238,1.681-1.238,2.398C5.166,15.707,5.864,16.405,6.722,16.405z M6.722,13.377c0.404,0.591,0.756,1.226,0.756,1.472   c0,0.417-0.339,0.756-0.756,0.756s-0.756-0.339-0.756-0.756C5.966,14.602,6.318,13.968,6.722,13.377z"/></g></svg>